<?xml version="1.0" encoding="utf-8"?>
<!-- Generator: Adobe Illustrator 26.0.0, SVG Export Plug-In . SVG Version: 6.00 Build 0)  -->
<svg version="1.1" id="Layer_1" xmlns="http://www.w3.org/2000/svg" xmlns:xlink="http://www.w3.org/1999/xlink" x="0px" y="0px"
	 viewBox="0 0 472.2 228.8" style="enable-background:new 0 0 472.2 228.8;" xml:space="preserve">
<style type="text/css">
	.st0{enable-background:new    ;}
</style>
<g>
	<g>
		<path d="M306.4,88.5c-4.7,0.3-9.4,0.5-14.1,0.9c-1.6,0.2-2.6,0.1-3.5-1.7c-3.2-6.4-6.4-12.9-10-19.1c-8.8-15.2-16.7-30.9-21.2-48
			c-1.2-4.6-2-9.3-3.1-14.2c-0.8,1-1.3,2.1-1.6,3.4c-3.7,11-2.2,21.9,0.8,32.6c3.3,11.8,8.8,22.8,15,33.3l7.3,12.4
			c0.8,1.3,0.8,2.1-1.1,1.9c-1.7-0.2-3.3-0.2-5,0c-2.7,0.5-3.9-0.9-5-3c-2.9-5.6-6-11.2-9.1-16.7c-6.3-11.3-11.2-23.1-13.1-36
			c-0.5-3.6-0.2-7.2-1-10.7c-0.7,0-0.8,0.5-1.1,0.8c-5.3,7.9-5.7,16.6-4.3,25.6c1.5,9,5,17.3,9.2,25.3c1.8,3.5,3.8,6.9,6,10.9
			c-1.4-0.5-2.2-0.7-2.9-1.1c-7.5-3.8-14.7-8.2-21.5-13.1c-7.7-5.4-15.4-10.7-23.8-14.9c-9.3-4.5-19-6.5-29.3-4.9
			c-10.9,1.7-19.1,7.5-24.8,16.7c-1,1.5-2.3,3.1-2.2,5.7c2.7-2.6,5.7-5,8.8-7.1c6.5-4.2,13.5-6.4,21.2-5.6
			c7.7,0.8,14.6,3.8,21.2,7.6c10.4,5.9,20.6,12.2,30.8,18.3c4,2.3,7.8,4.7,12,7.2c-1.9,0.4-3.9,0.7-5.9,0.7
			c-8.1,0.3-16.2-0.7-24.3-1.5c-1.1-0.1-1.4-0.6-1.8-1.5c-2.3-5.3-6.3-9.7-11.4-12.5c-0.1-0.1-0.2-0.1-0.3-0.2
			c-0.9-0.5-2-0.2-2.6,0.7c-1.6,2.1-3.1,4.4-4.3,6.7c-2.8,5-4.9,10.4-8.3,15c-4,5.4-8.7,5.6-13.3,1c-2.7-2.8-5.6-5.2-8.3-7.8
			c-0.8,3.5-1.7,7.4-2.6,11.2c-0.1,0.9,0.1,1.7,0.6,2.4c5.1,9.4,9.3,19,10.1,29.8c0.6,8.7-1.7,16.4-8.1,24.1l-10-10.9
			c1.8,4,4.2,7.7,7.1,11c1.2,1.4,1,2-0.1,3.1c-5.3,5.5-11.7,9.1-18.7,12c-1.1,0.4-1.8-0.1-2.7-0.6c-8-4.2-14.5-10.3-20.5-16.8
			c-1-1.3-2.2-2.4-3.7-3.1c3.2,8.6,8.2,16.3,14.7,22.7c-1,0.1-1.9,0.1-2.9,0c-7.1-1.1-14-3.5-20.3-7c-1.3-0.7-1.9-1-2.7,0.7
			c-1.5,2.8-3.1,5.6-4.9,8.3c-0.7,1.1-0.4,1.6,0.6,2.2c6.2,4,13,7,20.2,8.8c11.2,2.7,21.5,0.3,31-5.9c5.9-4,11.1-9,15.4-14.7
			c0.4-0.5,0.7-1.9,1.9-0.8c2.3,2.1,4.6,4.1,6.9,6.2c-3.4,2.6-6.8,3.3-10,4.3c-1.2,0.4-2.9-0.1-3.7,0.9c-3.4,3.7-7.3,6.9-11.6,9.5
			c6.7,3.8,14.9,4.2,22,1c3.7-1.7,7.2-4,10.2-6.7c0.8-0.9,2.2-1.1,3.2-0.4c4.8,3,10.1,5.3,15.6,6.9c11.1,3.2,21.7,2.2,31.4-4.4
			c11.7-7.9,17.9-19.5,21.8-32.7c1.5-5,2-10.2,2.7-15.6c3.3,2.6,6.9,4.6,10.8,6.1c1.8,0.6,3,0.4,4.2-1.5c6.6-10.7,9.6-22,6.8-34.6
			c-1-4.5-1.2-4.7-5.7-4.1c-0.7,0.1-1.4,0-2.1,0.1c-3.2,0.4-3.2,0.4-2.6,3.6c0.4,1.8,0.6,3.6,1,5.4c1.1,5.6,1.5,11.3,1.1,17
			c-10.8-5-18.5-13.4-26.3-22.1c-0.8,4.8-1.6,9.2-2.3,13.7c0,0.5,0.1,1,0.4,1.4c3.1,4.5,6.2,9.1,10.6,12.5c0.7,0.4,1,1.2,0.8,2
			c-0.9,4.9-1.8,9.8-2.8,15.1c-2.2-2-4.3-3.7-6.2-5.6c-5.5-5.3-10.9-10.7-14.2-17.8c-2-4.2-5.1-7.8-8.9-10.4
			c-1.1-0.8-1.5-0.6-2.2,0.5c-1.4,2.4-2.9,4.7-4.4,7.1c-6.9,10.8-13.2,21.8-21.2,31.8c-3,3.8-6.3,7.4-9.8,10.8
			c2.3,1.4,4.3,2.5,6.3,3.7c1.2,0.7,2.1,0.8,3-0.6c3.2-4.7,6.2-9.6,9-14.6c2.6-5,5.1-9.9,7.8-15.2c0.3,1.8,0.5,3.2,0.7,4.7
			c1.5,8,4.7,15.2,10.5,21.1c3.3,3.2,5.4,2.8,7.4-1.5c0.1-0.2,0.2-0.5,0.3-0.7c2.1-3.9,2.4-8.4,4-13.5c3.4,3.6,6.4,6.9,9.4,10
			c0.8,0.8,0.7,1.1,0,1.8c-2.2,2.4-4.6,4.5-7.1,6.5c-9.7,7.4-20.6,10.3-32.6,8.5c-10.6-1.7-20-6.5-28.6-12.9
			c-3.1-2.4-3.1-2.5-1.5-5.9c0.5-1,0.9-2.1,1.4-3.1c3.6-8,6.1-16.2,6.2-25.1c0-5.8-0.8-11.6-2.3-17.2c-0.4-1.4-0.8-2.4,1.4-2
			c2.1,0.3,4.2-0.5,5.7-2.1c1.8-1.8,2.8-4.1,4.7-6.3c0.3,2.9,1.5,5.3,2.4,7.8c1.9,5.1,4.3,10.1,8.6,13.8c3.7,3.2,5.2,3,7.9-0.9
			c4-5.8,5.5-12.3,5.7-19.2c0-1.7,0.5-2.2,2-2c1.8,0.2,3.7,0.3,5.5,0.4c15.9,1,31.3-3,46.9-5.2c12.9-1.8,25.8-2.8,38.5,1.3
			c1.3,0.4,1.5,0.2,1.7-1c0.8-4.4,1.6-8.9,2.5-13.3C308.3,88.4,307.4,88.5,306.4,88.5z M224.4,161c-7.6-2.2-13.2-17-10.7-28.2
			C221,137.3,228.8,149.1,224.4,161z M204.1,117.2c-7.8-2.9-13.4-16.8-10.6-26.8C201.2,96.2,204.8,106.5,204.1,117.2z"/>
		<path d="M171.1,79.6c-6.3,0.5-12.5,0.8-18.8,1.2c-2.1,0.1-4.4,1.3-6.2,0.3s-1.7-3.6-2.5-5.5c-3.9-9.3-8.9-18.2-12.6-27.6
			c-2.5-6.2-4.2-12.7-4.9-19.3c-0.9-8.3-1-16.6-0.3-24.8c0-0.4-0.2-0.7-0.5-0.8c-3.5,5.7-5.8,12-7,18.6c-2.3,15.7,1.1,30.5,7,45
			c2.1,5.1,4.5,10.1,7.1,15.2c-2.1,0-3.9-0.1-5.7,0c-1.5,0.2-3-0.5-3.9-1.8c-4.7-6.3-8.2-13.4-10.4-20.9c-3.3-10.7-4.3-21.8-4.2-33
			v-2.9c-11.4,20.1-8.3,39.5,3,58.6c-1.1-0.1-1.7-0.2-2.3-0.2C98.4,80,89.7,74.9,82.2,67.8C75.3,61.4,67.9,56.1,58.5,54
			c-9.1-2-18-2-26.3,2.6c-7,3.8-12,9.7-15.9,16.5C11.3,81.6,8.7,91,7,100.6c-1,4.9-1.4,9.9-1.4,14.8c0.7-1.6,1.3-3.3,1.8-5
			c3.9-12.2,8.3-24.1,16.5-34.2c10.3-12.7,23.4-14.7,37.3-6.7c7.4,4.3,14.1,9.5,21.1,14.4c4,2.8,8.1,5.3,12.7,8.4
			c-6.7,0.3-12.7,0.7-18.7,0.7c-3.9,0-7.8-0.3-11.7-0.9c-6.6-1-11.6-4.3-14.3-10.7c-1.5-3.8-2.5-7.7-3-11.8C47.1,68,47,67.4,45,68.2
			C35.8,71.8,30.4,79,26.5,87.7c-2.2,4.8-3.6,10-6.4,14.5c-1.8,2.6-3.1,5.4-4,8.4c-2.1,8.3-2.8,16.9-2.2,25.4
			c1.2,16.8,9.6,28.9,25.7,34.1c17.1,5.5,33.5,3.3,48.1-8c7.1-5.4,12.6-12.7,15.9-21c0.2-0.6-0.1-0.7-0.6-0.6c0,0,0,0,0,0
			c-3.8,4.8-8,9.2-12.6,13.2c-1.6,1.4-2.2,1-3.1-0.6c-2.6-4.7-3.5-9.8-3.7-15c-0.3-8.1,1.6-16,3.7-23.7c0,0,0,0,0,0
			c0.2-0.6-0.1-0.7-0.6-0.6c-5.3,7.1-8.8,15.4-10.1,24.2c-0.8,6.7-0.2,13.5,2,19.9c0.5,1.7-0.1,2.2-1.5,2.4
			c-3.2,0.6-6.4,1.6-9.7,1.9c-12.9,1.2-25.2,0-36-8c-5.5-4.1-9.9-8.9-12-15.6c-2.4-7.8-2.3-15.8-1.8-23.8c0.1-2,0.2-4.2,1.5-6
			c0.5-0.7,1.1-1.5,2.1-1.2s0.4,1.2,0.5,1.8c0.4,2.9,0.5,5.9,1.1,8.8c2.3,10.6,7.7,18.8,17.7,23.7c1.2,0.6,1.7,0.7,2.1-0.9
			c2-6.7,3.3-13.6,3.9-20.7c0.4-4.9-0.5-9.8-2.6-14.2c-3.3-6.4-9.1-9.2-15.9-10.3c1.6-4.5,4.4-8.4,8.1-11.4c3.9-3.4,3.9-3.2,5.1,1.6
			c2,7.7,5.7,14.5,12.8,18.9c6.7,4.1,14.1,4.4,21.5,3.4c10.5-1.3,20.3-5.1,30-9.3c3-1.3,5.8-3.4,9.1-3.8c8.4-1.2,16.8-1.8,25.2-2.2
			c9.3-0.4,18.7-0.1,28,1.1c1.4,0.2,1.7-0.2,2-1.4c0.9-3.8,1.9-7.6,2.9-11.3C173.1,79.6,172.4,79.5,171.1,79.6z M28.4,106.8
			c7.2,1.7,10.5,6.9,12.2,13.5c0.6,2.2,0.8,4.4,0.6,6.6c-7.4-3.8-11.5-9.7-13.7-17.3c-0.1-0.5-0.3-1-0.4-1.5
			C26.7,106.8,27,106.5,28.4,106.8z"/>
		<path d="M314.9,169.1c-14.4-11.3-19.8-28.9-13.9-45.7c3.9-10.9,11.5-18.4,22.2-22.8c1.8-0.8,2.7-0.8,2.6,1.7
			c-0.2,8.1-0.1,16.2-0.3,24.4c-0.2,2.1,0.5,4.1,1.9,5.7c3.4,3.9,7.3,7.3,11.6,10.1c2.2,1.4,3.2,1,3.6-1.6
			c1.1-7.2,1.6-14.4,1.6-21.6c0-1.8-1.6-3-2.5-4.5c-7.2-11.6-13.6-23.6-17.2-36.9c-2.4-8.7-3.5-17.4-0.8-26.2
			c0.9-3.3,2.4-6.5,4.5-9.2c0.1,4.2,0.5,8.5,1.1,12.7c1.3,9.1,3.8,18,7.4,26.4c3.9,9.5,9.9,17.8,14.3,27c3.4,7.1,6.5,14.2,9.8,22
			c0-5.2,0.3-9.9-0.1-14.5c-0.4-7.3-1.7-14.5-3.9-21.5c-1.9-5.2-4.3-10.2-7.2-14.9c-6.4-11.2-11.5-22.9-13.2-35.8
			c-1.1-6.9,0.2-14,3.5-20.2c0.3-0.4,0.6-0.9,1-1.3c0.5,3.6,0.9,7,1.5,10.2c3,16.1,9.3,30.9,17.4,45c7.1,12.6,9.8,26.3,8.9,40.7
			c-0.6,9.6-2.8,18.9-8.3,27c-1,1.4-2.2,2.7-3.5,3.9c-0.9,0.9-1.5,0.7-1.8-0.4c-1.7-5.2-3.4-10.3-5.1-15.8c-2,5.5-3.7,10.9-6.1,16.1
			c-1.6,3.4-3.5,6.8-5.5,9.9c-1.5,2.3-2.5,1.6-3.9,0.2c-6.8-6.5-11.7-14.8-14.1-23.9c-1.7-6.7-1.6-13.5-1.6-20.3
			c-11.3,3.7-17.8,13-14.6,26.2c1.6,6.6,5.3,12.2,9.8,17.3c4.1,4.5,8.8,8.5,13.9,11.7c0.7,0.5,1.5,0.8,1.3,1.9
			c-1.1,8.7-2.1,17.4-3.6,26.2c-0.7-2.3-1.4-4.7-2-7s-1.2-4.9-1.9-7.3c-0.9-3.4-0.9-3.4-4.4-2.7c-16.5,3.4-33,3.6-49.4-0.8
			c-5.7-1.6-11.1-3.9-16.3-6.7c-1-0.3-1.5-1.4-1.1-2.4c0-0.1,0.1-0.2,0.1-0.3c1-2.9,2-5.7,2.9-8.6c0.4-1.3,1-1,1.9-0.6
			c6.6,2.8,13.5,5,20.5,6.5C289.2,171.1,301.9,171.9,314.9,169.1z"/>
		<path d="M436.9,155c-1.3-3.6-1.6-4-5.5-7.3c-0.4,7-2.2,13.8-5.2,20c-2.9,6.4-7.3,12.1-12.9,16.4l-6-16.7c-1.1,2.1-2,3.8-2.8,5.5
			c-2.2,4.6-4.5,9.2-6.6,13.8c-0.6,1.3-1.1,1.4-2.3,0.8c-7.6-3.7-11.4-10.1-13-18.1c-1.4-6.9-1-13.9-1.1-21.3
			c-13.6,13.3-29.9,21.4-47.1,28.2c0.1-2.1,0.1-4.1-0.1-6.2c-0.3-2.2-3-2.4-4.1-4.3c1.1-0.8,2.6-0.9,3.9-1.3
			c13.2-4.4,25.8-10.3,37.7-17.4c3.4-2.1,6.6-4.4,10-6.5c2.2-1.4,4.9-0.9,7.4-0.9c1.1,0,0.6,1.3,0.4,1.9c-0.9,4.4-1.2,9-0.9,13.5
			c0.3,6,2.7,11.8,6.9,16.2c1.3,1.3,1.9,1.6,2.6-0.4c0.6-1.5,1.5-2.9,2.1-4.5c0.9-2.8,3.8-5,3-8.1c-0.7-2.9-2.4-5.5-3.4-8.4
			c-2.4-6.9-3.3-14-1.7-21.2c0.7-2.6,1.9-5.1,3.4-7.4c0.2,0.3,0.5,0.5,0.5,0.6c-0.8,9.9,2.4,18.9,6.5,27.5
			c3.5,7.3,6.9,14.5,8.2,22.7c2.1-2.4,3.6-6.5,4.9-12.7c1-5.1,1.4-10.4,1.3-15.6c0.1-1.2-0.6-2.3-1.6-2.9
			c-6.1-4.4-8.8-10.9-10.5-17.8c-1.4-5.2-1.5-10.6-0.1-15.8c0.9-3.3,2.5-6.2,5.6-8.2c0,3.9,0.1,7.5,0,11.2
			c-0.2,8.5,2.9,15.2,9.9,20.1c3.6,2.4,7.2,4.8,11,7.4c0.6-4.7-0.2-9.1-1-13.5c-1.2-6.5-3.7-12.6-5.7-18.9
			c-3.3-10.2-3.7-20.5,0.9-30.5c0.5-0.9,1-1.8,1.6-2.7c0.3-0.4,0.4-1,1.3-1.1c-0.1,4.4,0.1,8.8,0.4,13.1c0.5,7.8,2.3,15.4,5.4,22.6
			c4,9.2,5.3,19.4,3.7,29.3c-0.8,6.5-3,12.6-6.5,18.2C437.3,154.7,437.2,154.8,436.9,155z"/>
		<path d="M9.6,161.4c6.2,8.1,14.9,12.6,24.3,15.7c11.4,3.8,23.6,5.1,35.6,3.8c5.5-0.5,10.9-2.1,15.8-4.8c1.3-0.8,1.6-1.5,0.6-2.8
			s-2.7-3.1-2.7-4.6s2.5-2.4,3.8-3.7c4.3-4,4.4-4,7.8,0.7c1.3,1.8,1.9,1.5,3.1-0.1c5.4-7.3,8.7-15.9,9.7-24.9
			c0.1-0.8,0.2-1.6,0.3-2.3c0.5-1.9-0.1-3.9-1.6-5.1c-3.3-3.1-5.9-6.9-8.7-10.4c-0.6-0.7-0.8-1.6-0.5-2.4c1.2-4.6,2.5-9.2,3.9-14.5
			c5.6,12,15.3,19.2,25.8,25.9c0.4-10.6-0.2-20.7-4.5-30.2c-0.9-2-1.1-3.1,1.8-3.1c2.4-0.1,4.7-0.4,7-0.9c1.4-0.2,1.8,0.4,2.1,1.6
			c1.1,4.5,1.6,9.1,1.4,13.6c-0.5,10.9-3.9,20.9-8.5,30.6c-0.8,1.7-1.5,1.6-2.9,1.1c-4.4-1.7-8.1-4.5-12.1-7.5
			c-0.5,2.6-1,4.9-1.4,7.2c-2.2,11.6-6,22.7-13.7,31.9c-9.3,11.2-21.4,16.5-36,16.2c-16.7-0.4-31.2-6.1-43.1-17.9
			c-3.6-3.4-6.4-7.7-8-12.4C8.7,161.4,9.1,161.3,9.6,161.4z"/>
		<path d="M356,0c0.7,6.5,1.7,12.8,2.7,19.2c2.1,13.5,6.7,26.5,13.4,38.3c5.4,9.3,9.6,19.2,12.8,29.4c3.8,12.2,3.5,25.3-0.8,37.4
			c-1.2,3.5-2.3,7-3.7,10.9c-0.5-0.9-0.7-2-0.5-3.1c0.1-11.3-0.3-22.5-2.6-33.6c-1.8-8.5-4.9-16.7-9-24.3c-4.3-8-9.1-15.7-12.4-24.2
			c-4-10.4-7-20.9-6.4-32.1C349.8,11.4,351.5,5.2,356,0z"/>
		<path d="M143.8,144.7c0.7-20.3,0.2-32.2-3.5-47.5c2.9-0.8,5.9-0.5,8.8-1c1.1-0.2,1.5,0.3,1.8,1.3c2.9,11.7,3.8,23.5-0.2,35.2
			C149.2,137.1,146.9,141.2,143.8,144.7z"/>
		<path d="M60.7,112.9c-0.1,3.8,2.4,4.9,4.3,6.5c1.2,1.1,1.9,2,0.2,3.3c-2.4,1.9-4.5,4-6.6,5.8c0.6-3.1-2.2-4.4-4.6-5.9
			c-1.5-0.9-1.5-1.5-0.3-2.6C55.9,118,58,115.8,60.7,112.9z"/>
		<path d="M58.2,144.1c0.7-3.8-4-4.4-6.1-7.2l7.9-7.7c0.3,3.2,2.7,4.6,4.8,6.1c1.2,1,1.6,1.6,0.3,2.8
			C62.6,140.2,60.2,142.3,58.2,144.1z"/>
		<path d="M127.6,161.5c0.6-4.1-2.3-5.3-4.4-6.9c-1.5-1.1-1.5-1.7-0.2-2.9c2.1-1.9,4.1-4,6.4-6.3c0.4,3.4,3.2,4.6,5.2,6.5
			c0.6,0.6,1.2,0.9,0.4,1.8C132.6,156.2,130.3,158.6,127.6,161.5z"/>
		<path d="M445.2,159.6c0.2,3.9,3,5,4.9,6.8c1,0.9,1.2,1.4,0.2,2.4c-2.3,2.2-4.4,4.6-7,7.3c0.6-4-2.1-5.2-4.3-6.7
			c-1.9-1.2-1.6-2-0.2-3.3C440.8,164.3,442.7,162.2,445.2,159.6z"/>
		<path d="M103.5,141l-0.6-0.6l1.2-2c0.9,0,0.7,0.5,0.4,1L103.5,141z"/>
		<path d="M9.6,161.4L9,162.1c-0.1-0.1-0.4-0.2-0.3-0.3c0.1-0.7-1.3-1.4-0.2-1.9C9.2,159.6,9.5,160.6,9.6,161.4z"/>
		<path d="M87.2,114.3l-0.6-0.6c0-0.6,0.3-1.2,0.8-0.9S87.9,113.8,87.2,114.3z"/>
		<path d="M104.5,139.4l-0.4-1c0-0.5,0.5-0.9,0.7-0.7C105.4,138.3,105.1,138.9,104.5,139.4z"/>
	</g>
	<path d="M228.5,206.6c0.5,1.7,0.8,2.8,1.2,4c-1.1,0-2.5,0.6-2.9-0.4S227.5,208.1,228.5,206.6z"/>
	<g class="st0">
		<rect x="13" y="210.4" width="3.6" height="14.7"/>
		<polygon points="42.9,225.2 39.3,225.2 33.3,216.1 33.3,225.2 29.7,225.2 29.7,210.4 33.3,210.4 39.3,219.6 39.3,210.4 
			42.9,210.4 		"/>
		<polygon points="81.5,210.4 81.5,213.3 77.6,213.3 77.6,225.2 74,225.2 74,213.3 70.1,213.3 70.1,210.4 		"/>
		<polygon points="106.6,210.4 106.6,225.2 103,225.2 103,219.1 97.4,219.1 97.4,225.2 93.8,225.2 93.8,210.4 97.4,210.4 
			97.4,216.2 103,216.2 103,210.4 		"/>
		<polygon points="123.3,213.3 123.3,216.3 128.1,216.3 128.1,219.1 123.3,219.1 123.3,222.3 128.7,222.3 128.7,225.2 119.7,225.2 
			119.7,210.4 128.7,210.4 128.7,213.3 		"/>
		<polygon points="169.7,225.2 166.1,225.2 160.1,216.1 160.1,225.2 156.5,225.2 156.5,210.4 160.1,210.4 166.1,219.6 166.1,210.4 
			169.7,210.4 		"/>
		<path d="M191.3,210.5h-4.2l-5.3,14.7h3.8l0.9-2.6h5.5l0.9,2.6h3.8L191.3,210.5z M187.4,219.8l1.8-5.4l1.8,5.4H187.4z"/>
		<polygon points="225.5,210.4 225.5,225.2 221.9,225.2 221.9,216.3 218.6,225.2 215.7,225.2 212.4,216.3 212.4,225.2 208.8,225.2 
			208.8,210.4 213,210.4 217.1,220.7 221.2,210.4 		"/>
		<polygon points="242.1,213.3 242.1,216.3 246.9,216.3 246.9,219.1 242.1,219.1 242.1,222.3 247.6,222.3 247.6,225.2 238.5,225.2 
			238.5,210.4 247.6,210.4 247.6,213.3 		"/>
		<path d="M288.9,213.9c-0.7-1.1-1.6-2-2.7-2.7c-1.2-0.6-2.4-1-3.8-1c-1.4,0-2.7,0.3-3.8,1c-1.2,0.6-2.1,1.5-2.8,2.7
			c-0.7,1.1-1,2.5-1,3.9c0,1.4,0.3,2.7,1,3.9c0.7,1.2,1.6,2.1,2.8,2.7c1.1,0.7,2.4,1,3.8,1c1.4,0,2.6-0.3,3.8-1
			c1.2-0.6,2.1-1.5,2.7-2.7c0.7-1.1,1-2.5,1-3.9C289.9,216.3,289.5,215,288.9,213.9z M285.2,220.9c-0.7,0.8-1.6,1.2-2.8,1.2
			c-1.2,0-2.1-0.4-2.9-1.2c-0.7-0.8-1.1-1.8-1.1-3.1c0-1.3,0.4-2.4,1.1-3.1c0.7-0.8,1.7-1.2,2.9-1.2c1.2,0,2.1,0.4,2.8,1.2
			c0.7,0.8,1.1,1.8,1.1,3.1C286.2,219.1,285.9,220.1,285.2,220.9z"/>
		<polygon points="312,210.4 312,213.3 306,213.3 306,216.4 310.4,216.4 310.4,219.2 306,219.2 306,225.2 302.4,225.2 302.4,210.4 
					"/>
		<path d="M347.8,210.5h-4.2l-5.3,14.7h3.8l0.9-2.6h5.5l0.9,2.6h3.8L347.8,210.5z M343.9,219.8l1.8-5.4l1.8,5.4H343.9z"/>
		<polygon points="368.9,222.4 373.6,222.4 373.6,225.2 365.3,225.2 365.3,210.4 368.9,210.4 		"/>
		<polygon points="389.4,222.4 394.1,222.4 394.1,225.2 385.8,225.2 385.8,210.4 389.4,210.4 		"/>
		<path d="M414.8,210.5h-4.2l-5.3,14.7h3.8l0.9-2.6h5.5l0.9,2.6h3.8L414.8,210.5z M410.9,219.8l1.8-5.4l1.8,5.4H410.9z"/>
		<polygon points="445.1,210.4 445.1,225.2 441.5,225.2 441.5,219.1 435.9,219.1 435.9,225.2 432.3,225.2 432.3,210.4 435.9,210.4 
			435.9,216.2 441.5,216.2 441.5,210.4 		"/>
	</g>
</g>
</svg>
