<?xml version="1.0" encoding="utf-8"?>
<!-- Generator: Adobe Illustrator 27.0.0, SVG Export Plug-In . SVG Version: 6.00 Build 0)  -->
<svg version="1.1" id="Layer_1" xmlns="http://www.w3.org/2000/svg" xmlns:xlink="http://www.w3.org/1999/xlink" x="0px" y="0px"
	 viewBox="0 0 333.1 237.2" style="enable-background:new 0 0 333.1 237.2;" xml:space="preserve">
<style type="text/css">
	.st0{fill:#231E1E;}
	.st1{fill:#D1D3D4;}
	.st2{fill:#25201F;}
	.st3{fill:#FFFFFF;stroke:#000000;stroke-width:0.75;stroke-miterlimit:10;}
</style>
<path class="st0" d="M331.6,204.7c-3.2-6.9-6.5-13.7-9.7-20.5c-2.9-6.1-4.5-12.3-3-19.1c4.6-20.4,4.9-41,1.9-61.6
	c-2.3-15.8-4.7-31.5-7.1-47.2c-1-6.2-2.2-12.3-6.3-17.3s-9.4-6.3-15.4-5.3s-9.1,5.2-10.8,10.7c-0.5,1.8-0.8,3.6-1.2,5.9l-2-2.5
	c-10-12.9-20.3-25.6-32.4-36.6c-4.1-3.8-8.5-7.4-13.8-9.5c-8.2-3.4-15.7-1.2-20.4,6.1c-0.9,1.3-1.4,1.1-2.7,0.7
	c-10.6-3.9-20.2,2.5-20.5,13.8c0,1.6-0.5,3.1-1.6,4.3c-5.4,6.3-7,13.6-5.6,21.6c0.3,1.3-0.1,2.7-0.9,3.7c-2.5,3.6-3.9,7.9-3.9,12.3
	c-0.1,9.1,2.7,18.1,7.8,25.7c5.5,8.2,11.1,16.2,17,24.1c3.7,5,6,10.9,6.6,17.1c1.5,11.6,3.1,23.2,8.5,33.8
	c6.4,12.8,15.5,23.5,26.3,32.7c5.5,4.7,8.9,10.2,10,17.3c0.8,4.9,1.5,9.8,2.2,14.8c0.9,6.3,5.1,9,11.3,7.1c20-6.3,40-12.6,60-18.9
	C332.9,215.5,334.7,211.2,331.6,204.7z M314.7,212.7c-16.7,5.4-33.5,10.8-50.3,15.8c-1.4,0.4-2.8,1.2-4.3,0.2
	c-0.7-4.3-1.6-8.6-2.1-12.9c-1.1-9.7-5.6-17.2-13.1-23.4c-8.1-6.8-15.1-14.9-20.7-23.9c-7.4-11.7-9.7-24.9-11.2-38.3
	c-0.7-7-3.2-13.6-7.4-19.2c-5.7-7.7-11.3-15.6-16.7-23.5c-4.7-6.8-7.3-14.8-7.4-23.1c0-2.7,0.6-5.4,1.8-7.8c1.5,0.2,1.5,1.4,1.9,2.2
	c7.8,14.4,17.8,27,29.3,38.5c0.7,0.7,1.5,1.3,2.2,2c1.5,1.3,3.1,2.7,4.8,0.7c1.5-1.8,0.1-3.2-1.3-4.4c-5.8-5.3-11.1-11.1-15.9-17.3
	c-6.7-8.6-13.3-17.4-17.1-27.8c-2.8-7-1.3-15,3.7-20.5c6,11.1,13.2,21.6,21.4,31.2c6.8,8.2,13.9,16,21.5,23.4
	c1.4,1.4,2.9,3.4,4.9,1.3s0.2-3.6-1.2-5c-13.6-13.5-26.1-27.8-36.5-43.9c-2.5-3.8-4.7-7.9-6.6-12.1c-1.7-3.6-0.6-8,2.6-10.3
	c3.2-2.7,7.7-2.9,11.1-0.5c1.7,1.1,3.1,2.6,4.1,4.3c14,21.4,31,40.2,48.1,59.1c1.2,1.4,2.6,2.7,4.4,1.1c2-1.7,0.7-3.3-0.7-4.8
	c-14.6-16-29.2-32.1-41.8-49.8c-1.9-2.6-3.5-5.5-5.6-8c-3.2-3.8,0.4-9.5,4.2-10.1c4.4-0.8,9.1,0.1,12.8,2.7
	c6.9,4.6,12.6,10.5,18.3,16.5c9.5,10.4,18.5,21.3,26.9,32.6c1,1.3,1.6,2.8,1.6,4.4c0.3,7.6,0.8,15.2,1.2,22.8
	c0.6,9.4-1.6,18.7-6.5,26.8c-4.8,8-7.8,17-8.9,26.3c-0.1,1.1-0.2,2.2-0.2,3.4c0,1.8,1,3,2.7,2.9c1.4,0,2.5-1.2,2.5-2.6
	c0,0,0-0.1,0-0.1c0.5-11.4,4.9-21.4,10.4-31.2c4.8-8.6,5.7-18.1,5.1-27.9s-0.9-19.4-1.3-29.1c-0.2-2.5,0.1-5,0.8-7.4
	c1.6-5.5,4.5-7.5,10.5-7c1.9,0.9,2.4,2.8,3,4.5c2.2,6.3,2.6,12.9,3.6,19.5c2.2,15,5.3,29.9,6.7,45.1c1.5,15.7,2,31.4-1.7,46.8
	c-2.7,11.6-1,21.9,4.4,32.1c2.5,4.7,4.7,9.6,6.9,14.5C322.3,207.2,321,210.7,314.7,212.7L314.7,212.7z"/>
<path class="st1" d="M260.2,228.7c18.2-5.7,36.5-11.4,54.7-17.2c5.4-1.7,6.5-4.5,4-9.7c-3.4-7.3-6.7-14.7-10.3-22
	c-4.1-8.4-3.2-16.9-1.2-25.5c2.1-9.5,3-19.3,2.7-29.1c-0.5-16.2-2.4-32.3-5.5-48.2c-1.9-9.9-3.1-20-4.8-30c-0.5-2.9-1.5-5.8-3-8.4
	c4.8,0.1,7.1,3.4,9,7.2c2.4,4.9,2.6,10.3,3.5,15.6c2.2,14.1,4.4,28.2,6.4,42.4c2.8,19.8,2.8,39.4-1.7,59c-1.7,7-0.9,14.3,2.1,20.8
	c3.6,7.8,7.3,15.5,10.9,23.3c1.7,3.6,1.4,4.4-2.5,5.6c-19.8,6.3-39.5,12.5-59.3,18.7C262.6,232.1,260.3,232.4,260.2,228.7z"/>
<path class="st0" d="M152.3,51c-0.9-1.1-0.4-2-0.2-3.1c1.1-7.5-0.1-14.4-5-20.4c-1.5-1.8-2.4-4-2.4-6.3c-0.2-8-6.8-14.3-14.8-14.1
	c-1.8,0-3.5,0.4-5.1,1.1c-2.1,0.9-2.7,0.3-3.5-1.4c-2-3.8-5.3-5.7-9.5-6.3c-7.4-1.1-13.4,1.9-18.9,6.3c-10.8,8.6-19.7,19-28.5,29.5
	c-3.7,4.5-7.3,9-11.2,14c-0.2-1.6-0.4-2.7-0.6-3.7c-1.7-7.9-5.6-12.1-12-13c-7.7-1.1-13.7,2.1-17.4,9.4c-1.6,3.1-2.6,6.5-3.1,9.9
	c-2.7,17.3-5.5,34.7-7.9,52c-2.6,19.2-2.7,38.5,1.7,57.5c1.8,7.3,0.9,15-2.5,21.7C7.9,191,4.6,198,1.4,205c-3,6.3-1.1,10.5,5.6,12.6
	c18.7,5.9,37.5,11.6,56.1,17.9c11.2,3.7,15.2,1.1,16-10.6c0.9-12.2,5-22.3,15-30.7c18.2-15.4,29.1-35.4,30.8-59.7
	c0.5-8.6,3.7-16.9,9.1-23.6c4.6-5.6,8.5-11.7,12.6-17.6c4.3-5.8,7.3-12.4,9-19.5C157.4,65.7,157.6,58,152.3,51z M150.6,73.3
	c-1.5,5.9-4.1,11.5-7.7,16.4c-4.1,5.8-7.9,11.8-12.4,17.3c-6.4,7.7-10.3,17.2-10.9,27.2c-1.6,24.1-13.3,43.1-31.3,58.2
	c-8.7,7.4-12.6,16.3-13.8,27.1c-0.3,3.1-1,6.1-1.5,9.2c-1.3,1-2.7,0.3-3.9-0.1c-17-5.3-34-10.5-51-16.1c-6-2-7.2-5.4-4.7-11.4
	c3-7.1,6.7-13.9,9.9-21c3.1-6.7,3.8-14.3,2.1-21.5C22.8,147,21.6,135,22,123.1c0.6-16.4,3-32.7,6-48.9c1.5-8.1,2.2-16.3,3.8-24.4
	c0.8-3.9,0.9-8.3,4.6-11c7.2-0.4,10.8,2.9,11.2,10.7c0.5,10.9-0.5,21.7-1.2,32.5c-0.7,11.4,1.1,22,7,31.9c4.9,8.1,7.8,17.3,8.4,26.8
	c0.1,1.8,0.7,3.4,2.6,3.4c2.2,0,2.8-1.7,2.6-3.7c-0.6-10-3.6-19.7-8.7-28.3c-5.8-9.7-7.7-20-6.6-31.2c0.6-6.3,0.7-12.7,1-19
	c0-1.4,0.4-2.7,1.2-3.8c10.3-13.5,20.7-26.8,32.8-38.8c4-4.1,8.4-7.8,13.1-11.1c3.4-2.2,7.4-3.1,11.4-2.5c5.5,0.7,7.9,5.7,4.9,10.3
	c-12.1,18.2-26.3,34.7-41,50.9c-2.2,2.4-4.3,4.8-6.5,7.2c-1.2,1.3-1.8,2.8-0.3,4.2s3,0.6,4.2-0.7c17-18.6,33.8-37.3,47.8-58.4
	c1.3-2,2.9-3.8,4.8-5.2c3.5-2.5,8.2-2.2,11.4,0.6c3.2,2.4,4.2,6.8,2.3,10.4c-5.9,12.5-14.1,23.4-22.9,34c-6.3,7.6-13,14.8-20,21.7
	c-0.7,0.7-1.4,1.4-1.9,2.3c-0.6,1-0.3,2.3,0.6,3c0.8,0.7,1.9,0.8,2.8,0.3c0.9-0.6,1.8-1.4,2.5-2.2c16.3-16.4,31.4-33.7,42.5-54.4
	c5.3,6.2,6.4,13.2,3.7,20.4c-4.8,12.6-13,23.1-21.6,33.4c-3.6,4.3-7.5,8.4-11.6,12.1c-1.4,1.2-2.6,2.7-1.1,4.4s3.1,0.7,4.5-0.6
	c12.5-11.7,23.1-25.2,31.4-40.1c0.5-0.9,0.7-2.1,2-2.9C152.6,61.9,151.8,67.6,150.6,73.3z"/>
<path class="st1" d="M36.4,38.8c-3.7,6.6-4,14-5.2,21.2c-1.7,10.4-3.4,20.7-4.9,31.1c-1.2,8-2.5,15.9-2.6,24c0,3.1-0.8,6.1-0.8,9.2
	c0.2,11.4,0.9,22.8,3.6,33.9c2.2,9.2,0.4,17.7-3.7,25.9C19.8,190,17,196,14.2,202c-2.5,5.1-1.4,7.9,4.1,9.6
	c18.2,5.8,36.5,11.4,54.7,17.1c-0.1,4.1-2.7,3.4-5.2,2.6c-13.5-4.3-27-8.5-40.5-12.8c-6.2-1.9-12.4-3.8-18.5-5.8
	c-3.7-1.2-4.1-2.1-2.4-5.7c2.5-5.4,4.8-10.9,7.7-16.2c5.7-10.4,7.1-21.1,4.4-32.8c-4.3-18.9-3.2-38.1-0.5-57.2
	c2.2-15.5,4.8-31,7.2-46.5c0.6-4,1.6-7.8,4-11.1C30.8,40.8,33,38.8,36.4,38.8z"/>
<path class="st2" d="M253.9,175c-0.1,0.9-0.6,1.7-1.3,2.1c-1.3,0.8-2.4,0.3-3.4-0.5c-8-6.9-14.8-14.7-18.4-24.9
	c-1.2-3.9-2.2-7.9-2.8-11.9c-0.4-2.8-1.2-5.6-2.6-8.1c-0.9-1.5-1-2.9,0.6-3.9c1.8-1,3-0.1,4,1.4c1.6,2.6,2.5,5.4,2.9,8.4
	c1.5,14.1,8.1,25.4,18.8,34.4C252.9,172.7,253.6,173.8,253.9,175z"/>
<path class="st2" d="M82.1,177.6c-1.1-0.2-1.9-0.4-2.3-1.3c-0.6-0.9-0.5-2,0.1-2.8c0.6-0.8,1.3-1.5,2.1-2.1
	c10.2-8.8,16.6-19.6,18-33.2c0.3-3.4,1.4-6.6,3.2-9.4c0.8-1.3,2-1.9,3.5-1.2c1.2,0.4,1.9,1.6,1.5,2.8c-0.1,0.2-0.2,0.4-0.3,0.6
	c-2.8,4.8-3,10.2-4.1,15.4c-2.8,12.5-10.2,21.9-19.6,30C83.5,176.9,82.8,177.3,82.1,177.6z"/>
<path class="st3" d="M314.7,212.8c-16.7,5.4-33.5,10.8-50.3,15.8c-1.4,0.4-2.8,1.2-4.3,0.2c-0.7-4.3-1.6-8.6-2.1-12.9
	c-1.1-9.7-5.6-17.2-13.1-23.4c-8.1-6.8-15.1-14.9-20.7-23.9c-7.4-11.7-9.7-24.9-11.2-38.3c-0.7-7-3.2-13.6-7.4-19.2
	c-5.7-7.7-11.3-15.6-16.7-23.5c-4.7-6.8-7.3-14.8-7.4-23.1c0-2.7,0.6-5.4,1.8-7.8c1.5,0.2,1.5,1.4,1.9,2.2
	c7.8,14.4,17.8,27,29.3,38.5c0.7,0.7,1.5,1.3,2.2,2c1.5,1.3,3.1,2.7,4.8,0.7c1.5-1.8,0.1-3.2-1.3-4.4c-5.8-5.3-11.1-11.1-15.9-17.3
	c-6.7-8.6-13.3-17.4-17.1-27.8c-2.8-7-1.3-15,3.7-20.5c6,11.1,13.2,21.6,21.4,31.2c6.8,8.2,13.9,16,21.5,23.4
	c1.4,1.4,2.9,3.4,4.9,1.3s0.2-3.6-1.2-5C223.8,67.4,211.3,53.1,201,37c-2.5-3.8-4.7-7.9-6.6-12.1c-1.7-3.6-0.6-8,2.6-10.3
	c3.2-2.7,7.7-2.9,11.1-0.5c1.7,1.1,3.1,2.6,4.1,4.2c14,21.4,31,40.2,48.1,59.1c1.2,1.4,2.6,2.7,4.4,1.1c2-1.7,0.7-3.3-0.7-4.8
	c-14.6-16-29.2-32.1-41.8-49.8c-1.9-2.6-3.5-5.5-5.6-8c-3.2-3.8,0.4-9.5,4.2-10.1c4.4-0.8,9.1,0.1,12.8,2.7
	c6.9,4.6,12.6,10.5,18.3,16.5c9.5,10.4,18.5,21.3,26.9,32.6c1,1.3,1.6,2.8,1.6,4.4c0.3,7.6,0.8,15.2,1.2,22.8
	c0.6,9.4-1.6,18.7-6.5,26.8c-4.8,8-7.8,17-8.9,26.3c-0.1,1.1-0.2,2.2-0.2,3.4c0,1.8,1,3,2.7,2.9c1.4,0,2.5-1.2,2.5-2.6
	c0,0,0-0.1,0-0.1c0.5-11.4,4.9-21.4,10.4-31.2c4.8-8.6,5.7-18.1,5.1-27.9s-0.9-19.4-1.3-29.1c-0.2-2.5,0.1-5,0.8-7.4
	c1.6-5.5,4.5-7.5,10.5-7c1.9,0.9,2.4,2.8,3,4.5c2.2,6.3,2.6,12.9,3.6,19.5c2.2,15,5.3,29.9,6.7,45.1c1.5,15.7,2,31.4-1.7,46.8
	c-2.7,11.6-1,21.9,4.4,32.1c2.5,4.7,4.7,9.6,6.9,14.5C322.3,207.3,321,210.7,314.7,212.8L314.7,212.8z"/>
<path class="st3" d="M18.4,212.7c-6.3-2-7.6-5.5-5-11.5c2.2-4.9,4.4-9.8,6.9-14.5c5.4-10.2,7.2-20.5,4.4-32.1
	c-3.7-15.4-3.1-31.1-1.7-46.8c1.4-15.2,4.5-30.1,6.7-45.1c0.9-6.5,1.4-13.2,3.6-19.5c0.6-1.8,1.1-3.6,3-4.5c6-0.5,8.9,1.5,10.5,7
	c0.7,2.4,0.9,4.9,0.8,7.4c-0.4,9.7-0.7,19.4-1.3,29.1s0.3,19.3,5.1,27.9c5.5,9.8,9.9,19.8,10.4,31.2c0,0,0,0.1,0,0.1
	c0,1.4,1.1,2.6,2.5,2.6c1.7,0.1,2.7-1.2,2.7-2.9c0-1.1-0.1-2.2-0.2-3.4c-1.1-9.3-4.1-18.3-8.9-26.3c-4.9-8-7.2-17.4-6.5-26.8
	c0.4-7.6,0.9-15.2,1.2-22.8c0-1.6,0.6-3.2,1.6-4.4c8.4-11.3,17.3-22.2,26.9-32.6c5.6-6,11.4-11.9,18.3-16.5
	c3.7-2.5,8.4-3.5,12.8-2.7c3.8,0.6,7.4,6.4,4.2,10.1c-2.1,2.5-3.7,5.3-5.6,8C98.2,41.5,83.7,57.6,69.1,73.6c-1.3,1.5-2.7,3-0.7,4.8
	c1.8,1.6,3.2,0.2,4.4-1.1c17.1-18.8,34.1-37.7,48.1-59.1c1.1-1.7,2.5-3.1,4.1-4.3c3.4-2.4,7.9-2.1,11.1,0.5
	c3.2,2.4,4.4,6.7,2.6,10.3c-1.9,4.2-4.1,8.3-6.6,12.1c-10.3,16.1-22.9,30.5-36.5,43.9c-1.4,1.4-3.3,2.9-1.2,5s3.6,0.1,4.9-1.3
	c7.5-7.4,14.7-15.3,21.5-23.4c8.2-9.6,15.4-20.1,21.4-31.2c5.1,5.6,6.5,13.5,3.7,20.5c-3.8,10.4-10.4,19.2-17.1,27.8
	c-4.8,6.2-10.1,12.1-15.9,17.3c-1.4,1.2-2.8,2.7-1.3,4.4c1.7,2,3.3,0.6,4.8-0.7c0.7-0.7,1.5-1.3,2.2-2
	c11.4-11.5,21.5-24.2,29.3-38.5c0.4-0.8,0.4-2,1.9-2.2c1.2,2.4,1.8,5.1,1.8,7.8c-0.1,8.3-2.7,16.3-7.4,23.1
	c-5.4,7.9-11,15.8-16.7,23.5c-4.1,5.6-6.7,12.3-7.4,19.2c-1.6,13.4-3.8,26.6-11.2,38.3c-5.6,9-12.6,17.1-20.7,23.9
	c-7.5,6.2-12.1,13.7-13.1,23.4c-0.5,4.3-1.4,8.6-2.1,12.9c-1.5,1-2.9,0.2-4.3-0.2C51.9,223.5,35.2,218.1,18.4,212.7L18.4,212.7z"/>
</svg>
