<svg id="Layer_1" data-name="Layer 1" xmlns="http://www.w3.org/2000/svg" viewBox="0 0 333.09 237.2"><title>doa-gesture</title><path d="M289.06,63.82c.47-2.31.7-4.15,1.23-5.91,1.64-5.5,4.85-9.59,10.79-10.65s11.38.34,15.44,5.28,5.38,11.11,6.33,17.28c2.4,15.74,4.8,31.48,7.08,47.24,3,20.65,2.72,41.23-1.89,61.64-1.54,6.85.1,13.05,2.95,19.12,3.22,6.86,6.51,13.69,9.73,20.54,3.07,6.53,1.31,10.75-5.55,12.94q-30,9.54-60,18.94c-6.13,1.92-10.33-.8-11.27-7.08-.74-4.92-1.48-9.85-2.25-14.76-1.1-7.06-4.53-12.63-10-17.3-10.82-9.18-19.88-19.88-26.28-32.68-5.34-10.66-7-22.22-8.46-33.82a35.36,35.36,0,0,0-6.63-17.14q-8.81-11.83-17-24.11a45,45,0,0,1-7.81-25.66,20.77,20.77,0,0,1,3.85-12.27,4.29,4.29,0,0,0,.94-3.68c-1.39-8,.23-15.37,5.62-21.63a6.27,6.27,0,0,0,1.59-4.33C197.73,24.49,207.32,18,217.91,22c1.23.46,1.8.68,2.66-.66,4.68-7.26,12.17-9.49,20.36-6.1,5.26,2.17,9.6,5.74,13.75,9.53,12.09,11.07,22.38,23.75,32.43,36.63Z" transform="translate(-9.08 -13.64)" style="fill:#231e1e"/><path d="M62.15,63.86c3.91-4.9,7.47-9.48,11.17-14C82.08,39.35,91,29,101.84,20.37c5.52-4.38,11.5-7.35,18.89-6.3,4.23.6,7.59,2.44,9.54,6.28.88,1.71,1.4,2.31,3.54,1.44a14.44,14.44,0,0,1,19.93,13,10,10,0,0,0,2.43,6.3c4.8,6,6,12.95,5,20.42-.16,1.08-.64,2,.22,3.13,5.29,6.95,5.17,14.73,3.38,22.79a53.85,53.85,0,0,1-9,19.47c-4.17,5.9-8.07,12-12.65,17.59a40.51,40.51,0,0,0-9.22,23.55c-1.73,24.34-12.57,44.3-30.79,59.74-10,8.44-14,18.47-15,30.7-.88,11.66-4.82,14.35-16,10.61-18.6-6.22-37.37-11.93-56.07-17.86-6.6-2.1-8.46-6.34-5.51-12.63,3.28-7,6.57-13.93,9.94-20.85A31.77,31.77,0,0,0,22.85,176c-4.39-19.05-4.29-38.33-1.67-57.58,2.37-17.38,5.2-34.69,7.87-52a32.58,32.58,0,0,1,3.13-9.9c3.7-7.23,9.74-10.47,17.41-9.37,6.35.91,10.25,5.13,12,13C61.79,61.21,61.9,62.28,62.15,63.86Z" transform="translate(-9.08 -13.64)" style="fill:#231e1e"/><path d="M269.26,242.36c-.72-4.3-1.64-8.57-2.12-12.89-1.08-9.69-5.59-17.23-13.13-23.41a98.79,98.79,0,0,1-20.69-23.93c-7.4-11.72-9.66-24.92-11.24-38.32a38.94,38.94,0,0,0-7.38-19.25C209,116.88,203.44,109,198,101.12A41.2,41.2,0,0,1,190.6,78a18.23,18.23,0,0,1,1.77-7.83c1.49.18,1.49,1.41,1.92,2.2,7.75,14.37,17.82,27,29.26,38.54.7.71,1.5,1.32,2.24,2,1.46,1.3,3.12,2.65,4.78.66,1.46-1.76.09-3.21-1.29-4.43a130.56,130.56,0,0,1-15.9-17.34C206.65,83.17,200.1,74.37,196.27,64A19.59,19.59,0,0,1,200,43.49a180.36,180.36,0,0,0,21.38,31.24,317.2,317.2,0,0,0,21.46,23.43c1.39,1.38,2.9,3.41,4.95,1.32s.2-3.59-1.25-5C232.92,81,220.39,66.7,210.06,50.55a82.51,82.51,0,0,1-6.61-12.1,8.41,8.41,0,0,1,2.65-10.34,9.11,9.11,0,0,1,11.08-.52,14.54,14.54,0,0,1,4.13,4.25c14,21.38,31,40.24,48.11,59.05,1.24,1.36,2.64,2.69,4.43,1.12,2-1.74.66-3.29-.67-4.76-14.6-16-29.16-32.11-41.75-49.82-1.88-2.64-3.49-5.49-5.58-7.94-3.2-3.78.35-9.51,4.19-10.14A17.09,17.09,0,0,1,242.84,22c6.9,4.61,12.63,10.51,18.27,16.51A391.09,391.09,0,0,1,288,71.1a7.48,7.48,0,0,1,1.61,4.42c.34,7.59.77,15.18,1.21,22.77a45.67,45.67,0,0,1-6.52,26.77,66.21,66.21,0,0,0-8.87,26.31,26.93,26.93,0,0,0-.19,3.36c0,1.75.95,3,2.68,2.94a2.56,2.56,0,0,0,2.52-2.72c.51-11.38,4.93-21.4,10.39-31.17,4.82-8.62,5.7-18.13,5.08-27.89s-.94-19.42-1.33-29.13a22.35,22.35,0,0,1,.75-7.4c1.65-5.54,4.52-7.5,10.54-7,1.89.92,2.38,2.77,3,4.54,2.16,6.3,2.64,12.92,3.57,19.45,2.16,15,5.29,29.94,6.71,45.1,1.47,15.69,2,31.44-1.66,46.8-2.73,11.56-1,21.91,4.42,32.07,2.53,4.72,4.74,9.61,6.9,14.52,2.66,6.05,1.35,9.5-4.94,11.53-16.72,5.39-33.45,10.78-50.27,15.83C272.16,242.58,270.73,243.4,269.26,242.36Z" transform="translate(-9.08 -13.64)" style="fill:#fbe5a8"/><path d="M269.26,242.36c18.23-5.72,36.47-11.4,54.68-17.17,5.41-1.71,6.45-4.5,4-9.67-3.44-7.31-6.73-14.69-10.27-22-4.09-8.35-3.17-16.85-1.23-25.46A119.28,119.28,0,0,0,319.13,139a300.2,300.2,0,0,0-5.55-48.22c-1.89-9.95-3.13-20-4.77-30a27.26,27.26,0,0,0-3-8.39c4.83.14,7.15,3.44,9,7.25,2.39,4.91,2.63,10.33,3.45,15.59,2.21,14.13,4.42,28.25,6.42,42.41,2.79,19.75,2.8,39.45-1.66,59a31.71,31.71,0,0,0,2.11,20.76c3.56,7.8,7.26,15.53,10.86,23.31,1.68,3.64,1.35,4.43-2.49,5.64q-29.65,9.39-59.33,18.7C271.68,245.78,269.38,246.08,269.26,242.36Z" transform="translate(-9.08 -13.64)" style="fill:#e9cc87"/><path d="M45.44,52.41c7.22-.41,10.85,2.87,11.22,10.66.51,10.85-.48,21.68-1.18,32.49-.74,11.4,1.11,22,7,31.89a58.45,58.45,0,0,1,8.38,26.79c.1,1.84.67,3.43,2.62,3.41,2.16,0,2.78-1.7,2.64-3.71a62.2,62.2,0,0,0-8.69-28.26c-5.82-9.7-7.74-20-6.64-31.16.62-6.32.71-12.69,1-19A6.37,6.37,0,0,1,63,71.71C73.28,58.2,83.74,44.88,95.78,32.89a86.23,86.23,0,0,1,13.13-11.06,16.32,16.32,0,0,1,11.41-2.49c5.51.71,7.94,5.72,4.92,10.27-12.1,18.23-26.34,34.73-41,50.88-2.17,2.4-4.34,4.81-6.53,7.2-1.23,1.35-1.81,2.82-.32,4.24s3,.62,4.16-.71c17-18.6,33.8-37.31,47.76-58.37a19.52,19.52,0,0,1,4.79-5.17,9.09,9.09,0,0,1,11.37.62,8.14,8.14,0,0,1,2.29,10.39c-5.88,12.5-14.1,23.44-22.86,34a283.44,283.44,0,0,1-20,21.72A11.41,11.41,0,0,0,103,96.68a2.31,2.31,0,0,0,.61,3,2.23,2.23,0,0,0,2.78.26,13.39,13.39,0,0,0,2.51-2.2c16.28-16.38,31.4-33.66,42.53-54.44,5.27,6.22,6.4,13.18,3.68,20.37-4.78,12.62-13,23.14-21.58,33.39a110.14,110.14,0,0,1-11.64,12.12c-1.42,1.25-2.61,2.71-1.11,4.44s3.09.68,4.46-.6a163.77,163.77,0,0,0,31.42-40.14c.52-.93.69-2.12,2-2.91,3,5.57,2.24,11.26,1,16.93a46,46,0,0,1-7.72,16.44c-4.11,5.79-7.92,11.82-12.42,17.29a46.78,46.78,0,0,0-10.86,27.25C127,172.06,115.34,191,97.38,206.1c-8.72,7.35-12.6,16.3-13.78,27.08-.34,3.08-1,6.12-1.54,9.18-1.32,1-2.66.33-3.93-.06-17-5.26-34-10.52-51-16.07-6-2-7.17-5.43-4.66-11.38,3-7.13,6.73-13.91,9.87-21a33.62,33.62,0,0,0,2.14-21.52,141.39,141.39,0,0,1-3.42-35.62c.61-16.45,3-32.72,6-48.91,1.47-8.1,2.21-16.31,3.75-24.38C41.57,59.51,41.74,55.17,45.44,52.41Z" transform="translate(-9.08 -13.64)" style="fill:#fbe5a8"/><path d="M45.44,52.41c-3.65,6.59-4,14-5.19,21.17q-2.59,15.54-4.89,31.13c-1.18,8-2.55,15.9-2.58,24,0,3.13-.82,6.15-.78,9.25.17,11.41.86,22.78,3.56,33.91,2.23,9.18.37,17.67-3.71,25.92-2.92,5.9-5.72,11.87-8.56,17.82-2.46,5.13-1.37,7.92,4.08,9.64,18.21,5.77,36.46,11.44,54.69,17.15-.13,4.1-2.71,3.41-5.23,2.62Q56.55,238.62,36.3,232.2c-6.16-1.94-12.35-3.81-18.5-5.77-3.71-1.19-4.08-2.1-2.39-5.74,2.52-5.41,4.84-10.94,7.69-16.16,5.7-10.42,7.07-21.06,4.4-32.77-4.33-18.95-3.17-38.15-.49-57.24C29.18,99,31.78,83.53,34.17,68c.62-4,1.61-7.81,4-11.14C39.91,54.4,42.12,52.47,45.44,52.41Z" transform="translate(-9.08 -13.64)" style="fill:#e9cc87"/><path d="M263,188.66a2.84,2.84,0,0,1-1.3,2.13c-1.31.78-2.39.33-3.4-.53-8-6.88-14.8-14.7-18.35-24.9a79.22,79.22,0,0,1-2.78-11.94,24.21,24.21,0,0,0-2.55-8.12c-.88-1.51-1-2.94.64-3.86,1.75-1,3-.15,4,1.44a20.27,20.27,0,0,1,2.87,8.4c1.49,14.11,8.06,25.37,18.79,34.4A4.77,4.77,0,0,1,263,188.66Z" transform="translate(-9.08 -13.64)" style="fill:#25201f"/><path d="M91.15,191.28c-1.05-.23-1.86-.45-2.33-1.32a2.35,2.35,0,0,1,.13-2.79,16.67,16.67,0,0,1,2.11-2.09c10.2-8.79,16.55-19.64,18-33.19a20.73,20.73,0,0,1,3.23-9.42c.85-1.28,2-1.88,3.5-1.19A2.25,2.25,0,0,1,117,144.7c-2.85,4.75-3,10.2-4.1,15.37-2.76,12.52-10.22,21.87-19.63,30A12.44,12.44,0,0,1,91.15,191.28Z" transform="translate(-9.08 -13.64)" style="fill:#25201f"/></svg>