<svg id="Layer_1" data-name="Layer 1" xmlns="http://www.w3.org/2000/svg" viewBox="0 0 509.99 92.61"><title>walimatul-urus</title><path d="M155.78,106.57q-51.15,0-102.28.05c-2,0-2.53-.56-2.35-2.43s-.62-4.4.33-5.49c1.1-1.27,3.69-.4,5.62-.4q96.17,0,192.33,0c2.1,0,2.48-.58,2.47-2.55-.09-15.11,0-30.21-.1-45.31,0-1.81.48-2.29,2.2-2.13,1.94.18,4.52-.61,5.68.37s.36,3.69.37,5.63c0,16.65,0,33.3.05,49.95,0,1.79-.33,2.33-2.26,2.32Q206.81,106.51,155.78,106.57Z" transform="translate(-51.01 -14.03)" style="fill:#89CFF0"/><path d="M561,77.53c0,9.06,0,18.12,0,27.18,0,1.43-.27,1.91-1.82,1.9q-19.17-.1-38.36,0c-1.37,0-1.91-.3-1.76-1.74.22-2.14-.9-5,.47-6.24,1.2-1.06,4-.33,6.11-.33,8.29,0,16.59,0,24.88,0,1.53,0,2.17-.21,2.16-2q-.13-18.84,0-37.7c0-1.64-.5-2.07-2-2a34.13,34.13,0,0,1-4.85,0c-1.3-.09-1.69.35-1.67,1.65.08,4.49,0,9,.07,13.48,0,1.32-.35,1.66-1.65,1.63-4.49-.08-9,0-13.49-.06-1.43,0-1.8.43-1.71,1.78.14,2-.64,4.65.37,5.9s3.81.35,5.82.4c3,.07,6,.06,9.06,0,1.13,0,1.66.19,1.58,1.47a50.09,50.09,0,0,0,0,5.48c0,1.06-.2,1.47-1.37,1.46q-11.07-.07-22.14,0c-1.33,0-1.63-.4-1.62-1.67q.11-10.74,0-21.49c0-1.22.33-1.53,1.53-1.51,4.49.07,9,0,13.49,0,1.36,0,1.8-.35,1.77-1.76-.09-4.5,0-9-.07-13.48,0-1.29.29-1.65,1.61-1.63,7.31.07,14.62.08,21.92,0,1.51,0,1.69.52,1.68,1.81,0,9.12,0,18.25,0,27.38Z" transform="translate(-51.01 -14.03)" style="fill:#89CFF0"/><path d="M189.28,89.81c-6.39,0-12.79,0-19.19,0-1.32,0-1.77-.26-1.76-1.7q.09-19.06,0-38.14c0-1.27.26-1.67,1.59-1.66,7.31.07,14.62.09,21.93,0,1.38,0,1.57.46,1.56,1.67-.06,7.24-.08,14.47,0,21.7,0,1.46-.46,1.79-1.78,1.7a32.52,32.52,0,0,0-4.63,0c-1.42.11-1.93-.26-1.88-1.8.11-4.35,0-8.71.07-13.06,0-1.45-.34-2-1.86-1.91-1.81.13-3.65.07-5.48,0-1,0-1.33.35-1.32,1.34q0,11.07,0,22.13c0,1,.29,1.34,1.32,1.34q11.38-.06,22.77,0c1.6,0,1.18-1,1.18-1.84,0-9.63.06-19.25,0-28.87,0-1.82.3-2.7,2.34-2.43a18.52,18.52,0,0,0,4.21,0c1.46-.14,1.87.31,1.86,1.81-.06,11.16,0,22.33,0,33.5,0,2,.91,4.68-.41,5.83-1.13,1-3.74.3-5.7.31Z" transform="translate(-51.01 -14.03)" style="fill:#89CFF0"/><path d="M469.09,77.4c0-9,0-18,0-26.94,0-1.47.14-2.35,2-2.11,2.07.27,4.85-.85,6.05.45,1,1.11.29,3.85.3,5.87,0,16.63,0,33.26.06,49.89,0,1.67-.43,2.21-2.08,2a21.15,21.15,0,0,0-4.21,0c-1.63.16-2.12-.34-2.1-2C469.14,95.51,469.09,86.46,469.09,77.4Z" transform="translate(-51.01 -14.03)" style="fill:#89CFF0"/><path d="M118.4,52.5c0-4.12,0-4.12,4.12-4.12s4.21,0,4.21,4.19,0,4.11-4,4.11C118.4,56.69,118.4,56.69,118.4,52.5Z" transform="translate(-51.01 -14.03)" style="fill:#89CFF0"/><path d="M527.36,52.64c0,4,0,4-4,4-4.31,0-4.31,0-4.31-4.37,0-3.93,0-3.93,3.9-3.93h.21C527.36,48.38,527.36,48.38,527.36,52.64Z" transform="translate(-51.01 -14.03)" style="fill:#89CFF0"/><path d="M318.54,102.46c0-4.18,0-4.18,4.28-4.18,3.92,0,3.92,0,3.92,3.89,0,4.4,0,4.4-4.49,4.4C318.54,106.57,318.54,106.57,318.54,102.46Z" transform="translate(-51.01 -14.03)" style="fill:#89CFF0"/><path d="M339.53,98.28c4,0,4,0,4,4,0,4.3,0,4.3-4.38,4.3-3.86,0-3.86,0-3.86-3.81v-.21C335.33,98.28,335.33,98.28,339.53,98.28Z" transform="translate(-51.01 -14.03)" style="fill:#89CFF0"/><path d="M310,52.73c0,4,0,4-3.87,4s-4,0-4-4c0-4.28,0-4.28,4.37-4.28C310,48.37,310,48.37,310,52.73Z" transform="translate(-51.01 -14.03)" style="fill:#89CFF0"/><path d="M460.66,77.45c0-9-.05-18,0-27,0-1.79-.5-2.3-2.22-2.12a25.1,25.1,0,0,1-4.42,0c-1.33-.09-1.86.24-1.77,1.7.14,2.31,0,4.63,0,7q0,19.69,0,39.4c0,.76.56,1.91-1.1,1.9q-11.49-.06-23,0c-.93,0-1.23-.32-1.2-1.23A42.71,42.71,0,0,0,427,92c-.15-1.69.32-2.3,2.14-2.24,4.21.14,8.43,0,12.65.08,1.54,0,2.05-.29,2-1.93-.13-4.78,0-9.56,0-14.33q0-11.7,0-23.39c0-.83.38-1.85-1.2-1.84-7.59,0-15.18,0-22.77,0-.78,0-1.11.21-1.1,1.08q0,11.38,0,22.76c0,.91.28,1.23,1.2,1.2a50.08,50.08,0,0,1,5.48,0c1.47.11,1.72-.47,1.7-1.78-.08-4.36,0-8.71-.06-13.07,0-1.4.27-2.06,1.82-1.93a30.21,30.21,0,0,0,4.85,0c1.54-.12,1.85.49,1.84,1.91q-.11,10.53,0,21.07c0,1.48-.37,1.88-1.85,1.86q-10.76-.12-21.51,0c-1.6,0-2-.43-2-2,.07-9.83,0-19.67.06-29.5,0-1.23-.18-1.78-1.57-1.65a23.88,23.88,0,0,1-4.63,0c-1.67-.17-2.07.4-2.06,2q.11,21,0,41.94c0,1.94.87,4.52-.4,5.63-1.09,1-3.62.18-5.49.37s-2.23-.36-2.22-2.15c.08-15.31,0-30.62.08-45.94,0-1.42-.3-1.91-1.82-1.89q-10.76.12-21.51,0c-1.54,0-1.8.5-1.8,1.91q.07,20.64,0,41.3c0,2.21,1,5.24-.46,6.4s-4.31.24-6.54.36c-1.2.06-1.55-.32-1.53-1.53.07-4.42-.05-8.85.07-13.27,0-1.64-.37-2.11-2.06-2.1-9.91.09-19.82,0-29.73.06-1.15,0-1.94,0-1.92-1.6.1-7.23.06-14.47,0-21.7,0-1,.18-1.52,1.37-1.51q11.28.06,22.57,0c1.19,0,1.39.5,1.36,1.52-.06,1.82-.08,3.65,0,5.48.05,1.17-.29,1.6-1.53,1.56-2.88-.09-5.76,0-8.64,0-2.1,0-4.94-.73-6.09.34-1.34,1.22-.25,4.1-.44,6.24-.11,1.28.28,1.66,1.61,1.65q10.86-.11,21.72,0c1.38,0,1.75-.36,1.74-1.74q-.11-10.86,0-21.71c0-1.29-.3-1.64-1.61-1.63q-19.29.07-38.59,0c-1.46,0-1.68.48-1.67,1.77,0,12.65.06,25.29,0,37.94,0,1.55.48,1.79,1.89,1.79,9.84-.07,19.68,0,29.52-.07,1.59,0,2.19.28,2.13,2-.14,4.28,0,8.57-.09,12.85,0,1.64.47,2,2,1.94q10.54-.12,21.09,0c1.64,0,2.11-.38,2.09-2.08-.08-9.76,0-19.52-.07-29.29,0-1.44.34-2,1.85-1.88a25.57,25.57,0,0,0,4.63,0c1.67-.15,2.11.4,2.1,2.07-.09,9.76,0,19.53-.08,29.29,0,1.42.28,1.91,1.81,1.89,7-.09,14.06-.08,21.09,0,1.34,0,1.82-.24,1.79-1.71-.12-4.28.08-8.57-.1-12.85-.08-2,.59-2.43,2.37-2.24a21.93,21.93,0,0,0,4.21,0c1.52-.15,2.05.27,2,1.92-.13,4.35,0,8.71-.08,13.06,0,1.53.45,1.83,1.88,1.83q19.08-.09,38.17,0c1.58,0,2-.38,2-2C460.62,95.57,460.66,86.51,460.66,77.45ZM381.21,65.2c-4.11,0-4.11,0-4.1-4,0-4.53,0-4.53,4.62-4.53,3.88,0,3.88,0,3.89,4.2S385.62,65.2,381.21,65.2Z" transform="translate(-51.01 -14.03)" style="fill:#89CFF0"/><path d="M159.92,50c0-1.25-.24-1.68-1.6-1.66-7.3.07-14.61.08-21.92,0-1.53,0-1.67.57-1.66,1.82q.07,10.76,0,21.49c0,1.35.29,1.81,1.73,1.78,4.35-.1,8.71,0,13.07-.07,1.47,0,2.23.2,2,1.91a24.17,24.17,0,0,0,0,4.42c.09,1.34-.29,1.82-1.72,1.8q-10.75-.1-21.51,0c-1.3,0-1.66-.37-1.64-1.66.08-4.43,0-8.85,0-13.28,0-1.08-.25-1.41-1.4-1.39-4.42.08-8.86,0-13.28.08-1.68,0-2.36-.32-2.25-2.15.16-2.73.06-5.47,0-8.21,0-2.1.72-4.94-.35-6.09-1.22-1.31-4.09-.23-6.23-.43-1.36-.13-1.6.38-1.59,1.64q.09,12.44,0,24.86c0,2.15.94,5-.44,6.24-1.2,1.07-4,.21-6.1.39-1.68.15-2.09-.42-2.08-2.08.09-9.69,0-19.38.08-29.07,0-1.47-.17-2-1.87-2-7.16.12-14.33.1-21.5,0-1.56,0-1.79.49-1.78,1.89q.11,12.44,0,24.86c0,2.08.92,4.85-.42,6-1.15,1-3.88.19-5.89.37-1.74.15-2.23-.39-2.21-2.17.09-9.76,0-19.52.07-29.28,0-1.24-.21-1.78-1.58-1.69-1.82.13-3.66.07-5.48,0-.91,0-1.37.09-1.37,1.22q.08,19.48,0,39c0,1.06.35,1.28,1.33,1.27,7.52,0,15,0,22.56,0,1.15,0,1.41-.38,1.38-1.45-.06-2.81-.08-5.62,0-8.43.06-2.14-1-5.08.43-6.21s4.16-.22,6.32-.38c1.53-.12,1.7.57,1.68,1.83-.06,4.29.06,8.57-.07,12.85,0,1.56.46,1.8,1.88,1.8,11.87-.06,23.75,0,35.63,0s23.9,0,35.84,0c1.35,0,1.79-.26,1.78-1.7Q159.83,69.08,159.92,50ZM147.29,65.2c-4.19,0-4.19,0-4.19-4.27s0-4.26,4.22-4.25,4.23,0,4.23,4.27S151.55,65.2,147.29,65.2Zm-66.7-.83c-4.19,0-4.19,0-4.19-4.27s0-4.26,4.22-4.25,4.23,0,4.23,4.27S84.85,64.37,80.59,64.37Zm33.55,17.09c-4.28,0-4.28,0-4.28-4.23,0-3.84,0-3.84,4-3.84,4.5,0,4.5,0,4.51,4S118.41,81.46,114.14,81.46Z" transform="translate(-51.01 -14.03)" style="fill:#89CFF0"/><path d="M310,71.12c0-1.88.67-4.38-.28-5.49-1.1-1.3-3.69-.22-5.62-.45-1.52-.19-2,.25-2,1.9.11,8.15.06,16.3.05,24.44,0,2.17.74,5.07-.36,6.31-1.26,1.42-4.23.25-6.44.47-1.4.14-1.75-.36-1.74-1.73.07-7.73,0-15.46,0-23.18s0-15.6,0-23.39c0-1.28-.28-1.66-1.61-1.65-7.31.07-14.62.08-21.93,0-1.48,0-1.7.51-1.68,1.81,0,7.09.07,14.19,0,21.28,0,1.52.29,2.06,1.94,2,4.42-.13,8.86,0,13.28-.07,1.19,0,1.74.16,1.73,1.57-.08,7.31-.06,14.61,0,21.92,0,1.08-.28,1.49-1.41,1.44-1.89-.08-3.79-.07-5.69,0-1.09,0-1.46-.31-1.44-1.43.08-3,.09-6,0-9.06-.06-2.08.95-4.92-.41-6s-4-.22-6.1-.37c-1.46-.11-1.91.31-1.89,1.83q.12,10.74,0,21.49c0,1.5.43,1.86,1.88,1.86q18.88-.09,37.75,0c1.59,0,2-.41,2-2C310,93.46,310,82.29,310,71.12Zm-24.64-10.2c0,4.28,0,4.28-4.24,4.28s-4.25,0-4.25-4.25,0-4.27,4.22-4.27S285.39,56.68,285.38,60.92Z" transform="translate(-51.01 -14.03)" style="fill:#89CFF0"/><path d="M510.52,77.39c0-9.13,0-18.26,0-27.39,0-1.27-.26-1.67-1.59-1.65-7.38.07-14.75,0-22.13,0-1.09,0-1.41.27-1.4,1.4.06,7.37.08,14.75,0,22.12,0,1.45.56,1.56,1.72,1.54,4.35,0,8.71,0,13.07-.06,1.52,0,2.05.29,2,1.93-.11,5.48,0,11-.07,16.43,0,2.15,1,5.09-.43,6.21s-4.16.25-6.32.38c-1.27.07-1.73-.27-1.69-1.62.11-3,.09-5.9,0-8.85-.06-2.08.93-4.92-.41-6s-4-.25-6.1-.39c-1.33-.09-1.81.24-1.79,1.71.08,7.23.06,14.46,0,21.7,0,1.36.33,1.79,1.75,1.77q10.75-.12,21.51,0c1.44,0,1.89-.32,1.88-1.83C510.48,95.65,510.52,86.52,510.52,77.39ZM497.79,65.2c-4.05,0-4.05,0-4.05-4.07,0-4.46,0-4.46,4.51-4.45,3.93,0,3.93,0,3.93,4.18C502.17,65.2,502.17,65.2,497.79,65.2Z" transform="translate(-51.01 -14.03)" style="fill:#89CFF0"/><path d="M243.24,69.26c0-6.39-.05-12.78,0-19.18,0-1.37-.35-1.74-1.72-1.73q-10.86.1-21.72,0c-1.3,0-1.65.31-1.63,1.62q.11,10.85,0,21.71c0,1.38.34,1.77,1.74,1.75,4.49-.09,9,0,13.49-.06,1.33,0,1.72.36,1.64,1.65a45,45,0,0,0,0,5.06c.06,1.13-.37,1.42-1.45,1.4-3-.06-5.9,0-8.85,0-2.1,0-4.92-.7-6.1.36-1.34,1.22-.22,4.1-.45,6.24-.18,1.59.51,1.79,1.89,1.78,7.1-.06,14.2-.07,21.3,0,1.45,0,1.9-.32,1.87-1.83C243.18,81.77,243.24,75.51,243.24,69.26ZM230.75,65.2c-4.17,0-4.17,0-4.17-4.12,0-4.41,0-4.41,4.3-4.4S235,56.68,235,61,235,65.21,230.75,65.2Z" transform="translate(-51.01 -14.03)" style="fill:#89CFF0"/><text transform="translate(113.12 20.4)" style="font-size:24px;fill:#231f20;font-family:Gotham-Bold, Gotham;font-weight:700;letter-spacing:0.11002604166666667em">W<tspan x="29.57" y="0" style="letter-spacing:0.19999186197916666em">ALIM</tspan><tspan x="111.48" y="0" style="letter-spacing:0.1099853515625em">A</tspan><tspan x="133.08" y="0" style="letter-spacing:0.20003255208333334em">TU</tspan><tspan x="176.38" y="0" style="letter-spacing:0.18001302083333334em">L</tspan><tspan x="195.55" y="0" style="letter-spacing:0.20003255208333334em">URUS</tspan></text></svg>